# xmcd CD database file
#
# Track frame offsets:
#	150
#	12345
#	24324
#	35800
#	46508
#	56983
#	68224
#	77547
#	86990
#	99000
#	111410
#	121081
#	133493
#	142883
#	154249
#	165798
#	175809
#	184802
#	195215
#	203823
#	215754
#	224385
#	233156
#	244913
#	255403
#	266099
#	277746
#	286654
#	297015
#	308055
#	317524
#	328598
#	337559
#
# Disc length: 4673 seconds
#
# Revision: 0
# Processed by: cddbd v1.5.2PL0 Copyright (c) Steve Scherf et al.
# Submitted via: CDex 1.70
#
DISCID=ca123f21
DTITLE=Faron Young - Hello Walls: Greatest Hits 1952-1962
DYEAR=2019
DGENRE=Country
TTITLE0=Goin' Steady
TTITLE1=I Can't Wait (For the Sun to Go Down)
TTITLE2=A Place for Girls Like You
TTITLE3=If You Ain't Lovin' (You Ain't Livin')
TTITLE4=Live Fast, Love Hard, Die Young
TTITLE5=All Right
TTITLE6=Go Back You Fool
TTITLE7=It's a Great Life (If You Don'tWeaken)
TTITLE8=For the Love of aWoman Like You
TTITLE9=You're Still Mine
TTITLE10=I've Got Five Dollars and It's Saturday Night
TTITLE11=Sweet Dreams
TTITLE12=Turn Her Down
TTITLE13=I Miss You Already (And You're Not Even Gone)
TTITLE14=The Shrine of St Cecilia
TTITLE15=Love Has Finally Come My Way
TTITLE16=Alone with You
TTITLE17=Every Time I'm Kissing You
TTITLE18=That's the Way I Feel
TTITLE19=A Long Time Ago
TTITLE20=Last Night at a Party
TTITLE21=That's the Way It's Gotta Be
TTITLE22=Country Girl
TTITLE23=Riverboat
TTITLE24=Face to the Wall
TTITLE25=Your Old Used to Be
TTITLE26=There's Not Any Like You Left
TTITLE27=Forget the Past
TTITLE28=Hello Walls
TTITLE29=Backtrack
TTITLE30=Three Days
TTITLE31=The Comeback
TTITLE32=Down By the River
EXTD=YEAR: 2019
EXTT0=
EXTT1=
EXTT2=
EXTT3=
EXTT4=
EXTT5=
EXTT6=
EXTT7=
EXTT8=
EXTT9=
EXTT10=
EXTT11=
EXTT12=
EXTT13=
EXTT14=
EXTT15=
EXTT16=
EXTT17=
EXTT18=
EXTT19=
EXTT20=
EXTT21=
EXTT22=
EXTT23=
EXTT24=
EXTT25=
EXTT26=
EXTT27=
EXTT28=
EXTT29=
EXTT30=
EXTT31=
EXTT32=
PLAYORDER=
